<?xml version="1.0" standalone="no"?>
<!DOCTYPE svg PUBLIC "-//W3C//DTD SVG 20010904//EN"
 "http://www.w3.org/TR/2001/REC-SVG-20010904/DTD/svg10.dtd">
<svg version="1.0" xmlns="http://www.w3.org/2000/svg"
 width="64.000000pt" height="64.000000pt" viewBox="0 0 64.000000 64.000000"
 preserveAspectRatio="xMidYMid meet">

<g transform="translate(0.000000,64.000000) scale(0.100000,-0.100000)"
fill="#000000" stroke="none">
<path d="M307 634 c-4 -4 -7 -22 -7 -39 0 -29 -5 -34 -45 -49 -85 -33 -125
-104 -125 -223 0 -73 -11 -105 -50 -150 -35 -39 -37 -54 -12 -76 13 -12 37
-17 85 -17 63 0 67 -2 81 -28 8 -15 26 -33 41 -40 47 -22 76 -15 116 28 37 39
40 40 103 40 59 0 67 3 82 25 15 23 15 27 0 48 -65 88 -63 83 -68 179 -3 57
-11 105 -21 124 -21 40 -67 79 -111 94 -30 10 -35 16 -38 47 -3 35 -17 51 -31
37z m83 -136 c61 -42 72 -66 79 -177 7 -92 10 -106 39 -147 18 -24 32 -47 32
-49 0 -3 -102 -5 -226 -5 l-226 0 28 33 c41 49 54 89 54 169 0 90 24 145 77
176 49 28 101 28 143 0z m-20 -428 c0 -20 -48 -34 -75 -22 -40 18 -29 32 25
32 28 0 50 -5 50 -10z"/>
<path d="M90 565 c-40 -59 -62 -123 -58 -172 5 -67 33 -43 43 39 4 32 19 67
45 105 21 32 36 61 34 65 -12 19 -35 5 -64 -37z"/>
<path d="M485 600 c-3 -5 7 -27 24 -47 34 -42 61 -111 61 -153 0 -28 21 -55
33 -43 24 24 -7 142 -53 207 -33 45 -53 56 -65 36z"/>
</g>
</svg>
