<?xml version="1.0" standalone="no"?>
<!DOCTYPE svg PUBLIC "-//W3C//DTD SVG 20010904//EN"
 "http://www.w3.org/TR/2001/REC-SVG-20010904/DTD/svg10.dtd">
<svg version="1.0" xmlns="http://www.w3.org/2000/svg"
 width="64.000000pt" height="64.000000pt" viewBox="0 0 64.000000 64.000000"
 preserveAspectRatio="xMidYMid meet">

<g transform="translate(0.000000,64.000000) scale(0.100000,-0.100000)"
fill="#000000" stroke="none">
<path d="M225 526 c-60 -28 -87 -56 -114 -116 -36 -79 -19 -183 42 -249 33
-36 115 -71 167 -71 52 0 134 35 167 71 34 38 63 110 63 162 0 40 -3 47 -20
47 -12 0 -20 -7 -20 -16 0 -9 -15 -31 -34 -50 -30 -30 -40 -34 -85 -34 -44 0
-55 4 -86 35 -31 31 -35 42 -35 86 0 45 4 55 34 85 19 19 41 34 50 34 9 0 16
8 16 20 0 17 -7 20 -47 20 -29 0 -68 -9 -98 -24z m29 -63 c-30 -58 -30 -88 -1
-143 16 -30 37 -51 67 -67 55 -29 85 -29 143 1 26 13 47 19 47 14 0 -31 -59
-101 -105 -126 -39 -20 -131 -20 -170 0 -70 37 -108 100 -108 178 0 61 17 102
60 141 67 63 98 63 67 2z"/>
</g>
</svg>
